<svg xmlns="http://www.w3.org/2000/svg" fill="none" viewBox="0 0 554 781"><circle cx="390.586" cy="390.867" r="389.875" fill="#3B44AC" opacity=".03"/><circle cx="328.586" cy="132.867" r="3" fill="#D9D9D9"/><circle cx="302.586" cy="132.867" r="3" fill="#D9D9D9"/><circle cx="276.586" cy="132.867" r="3" fill="#D9D9D9"/><circle cx="250.586" cy="132.867" r="3" fill="#D9D9D9"/><circle cx="224.586" cy="132.867" r="3" fill="#D9D9D9"/><circle cx="198.586" cy="132.867" r="3" fill="#D9D9D9"/><circle cx="172.586" cy="132.867" r="3" fill="#D9D9D9"/><circle cx="146.586" cy="132.867" r="3" fill="#D9D9D9"/><circle cx="120.586" cy="132.867" r="3" fill="#D9D9D9"/><circle cx="94.586" cy="132.867" r="3" fill="#D9D9D9"/><circle cx="68.586" cy="132.867" r="3" fill="#D9D9D9"/><circle cx="42.586" cy="132.867" r="3" fill="#D9D9D9"/><circle cx="328.586" cy="158.367" r="3" fill="#D9D9D9"/><circle cx="302.586" cy="158.367" r="3" fill="#D9D9D9"/><circle cx="276.586" cy="158.367" r="3" fill="#D9D9D9"/><circle cx="250.586" cy="158.367" r="3" fill="#D9D9D9"/><circle cx="224.586" cy="158.367" r="3" fill="#D9D9D9"/><circle cx="198.586" cy="158.367" r="3" fill="#D9D9D9"/><circle cx="172.586" cy="158.367" r="3" fill="#D9D9D9"/><circle cx="146.586" cy="158.367" r="3" fill="#D9D9D9"/><circle cx="120.586" cy="158.367" r="3" fill="#D9D9D9"/><circle cx="94.586" cy="158.367" r="3" fill="#D9D9D9"/><circle cx="68.586" cy="158.367" r="3" fill="#D9D9D9"/><circle cx="42.586" cy="158.367" r="3" fill="#D9D9D9"/><circle cx="328.586" cy="183.867" r="3" fill="#D9D9D9"/><circle cx="302.586" cy="183.867" r="3" fill="#D9D9D9"/><circle cx="276.586" cy="183.867" r="3" fill="#D9D9D9"/><circle cx="250.586" cy="183.867" r="3" fill="#D9D9D9"/><circle cx="224.586" cy="183.867" r="3" fill="#D9D9D9"/><circle cx="198.586" cy="183.867" r="3" fill="#D9D9D9"/><circle cx="172.586" cy="183.867" r="3" fill="#D9D9D9"/><circle cx="146.586" cy="183.867" r="3" fill="#D9D9D9"/><circle cx="120.586" cy="183.867" r="3" fill="#D9D9D9"/><circle cx="94.586" cy="183.867" r="3" fill="#D9D9D9"/><circle cx="68.586" cy="183.867" r="3" fill="#D9D9D9"/><circle cx="42.586" cy="183.867" r="3" fill="#D9D9D9"/><circle cx="328.586" cy="209.367" r="3" fill="#D9D9D9"/><circle cx="302.586" cy="209.367" r="3" fill="#D9D9D9"/><circle cx="276.586" cy="209.367" r="3" fill="#D9D9D9"/><circle cx="250.586" cy="209.367" r="3" fill="#D9D9D9"/><circle cx="224.586" cy="209.367" r="3" fill="#D9D9D9"/><circle cx="198.586" cy="209.367" r="3" fill="#D9D9D9"/><circle cx="172.586" cy="209.367" r="3" fill="#D9D9D9"/><circle cx="146.586" cy="209.367" r="3" fill="#D9D9D9"/><circle cx="120.586" cy="209.367" r="3" fill="#D9D9D9"/><circle cx="94.586" cy="209.367" r="3" fill="#D9D9D9"/><circle cx="68.586" cy="209.367" r="3" fill="#D9D9D9"/><circle cx="42.586" cy="209.367" r="3" fill="#D9D9D9"/><circle cx="328.586" cy="234.867" r="3" fill="#D9D9D9"/><circle cx="302.586" cy="234.867" r="3" fill="#D9D9D9"/><circle cx="276.586" cy="234.867" r="3" fill="#D9D9D9"/><circle cx="250.586" cy="234.867" r="3" fill="#D9D9D9"/><circle cx="224.586" cy="234.867" r="3" fill="#D9D9D9"/><circle cx="198.586" cy="234.867" r="3" fill="#D9D9D9"/><circle cx="172.586" cy="234.867" r="3" fill="#D9D9D9"/><circle cx="146.586" cy="234.867" r="3" fill="#D9D9D9"/><circle cx="120.586" cy="234.867" r="3" fill="#D9D9D9"/><circle cx="94.586" cy="234.867" r="3" fill="#D9D9D9"/><circle cx="68.586" cy="234.867" r="3" fill="#D9D9D9"/><circle cx="42.586" cy="234.867" r="3" fill="#D9D9D9"/><circle cx="328.586" cy="260.367" r="3" fill="#D9D9D9"/><circle cx="302.586" cy="260.367" r="3" fill="#D9D9D9"/><circle cx="276.586" cy="260.367" r="3" fill="#D9D9D9"/><circle cx="250.586" cy="260.367" r="3" fill="#D9D9D9"/><circle cx="224.586" cy="260.367" r="3" fill="#D9D9D9"/><circle cx="198.586" cy="260.367" r="3" fill="#D9D9D9"/><circle cx="172.586" cy="260.367" r="3" fill="#D9D9D9"/><circle cx="146.586" cy="260.367" r="3" fill="#D9D9D9"/><circle cx="120.586" cy="260.367" r="3" fill="#D9D9D9"/><circle cx="94.586" cy="260.367" r="3" fill="#D9D9D9"/><circle cx="68.586" cy="260.367" r="3" fill="#D9D9D9"/><circle cx="42.586" cy="260.367" r="3" fill="#D9D9D9"/><circle cx="328.586" cy="285.867" r="3" fill="#D9D9D9"/><circle cx="302.586" cy="285.867" r="3" fill="#D9D9D9"/><circle cx="276.586" cy="285.867" r="3" fill="#D9D9D9"/><circle cx="250.586" cy="285.867" r="3" fill="#D9D9D9"/><circle cx="224.586" cy="285.867" r="3" fill="#D9D9D9"/><circle cx="198.586" cy="285.867" r="3" fill="#D9D9D9"/><circle cx="172.586" cy="285.867" r="3" fill="#D9D9D9"/><circle cx="146.586" cy="285.867" r="3" fill="#D9D9D9"/><circle cx="120.586" cy="285.867" r="3" fill="#D9D9D9"/><circle cx="94.586" cy="285.867" r="3" fill="#D9D9D9"/><circle cx="68.586" cy="285.867" r="3" fill="#D9D9D9"/><circle cx="42.586" cy="285.867" r="3" fill="#D9D9D9"/><circle cx="328.586" cy="311.367" r="3" fill="#D9D9D9"/><circle cx="302.586" cy="311.367" r="3" fill="#D9D9D9"/><circle cx="276.586" cy="311.367" r="3" fill="#D9D9D9"/><circle cx="250.586" cy="311.367" r="3" fill="#D9D9D9"/><circle cx="224.586" cy="311.367" r="3" fill="#D9D9D9"/><circle cx="198.586" cy="311.367" r="3" fill="#D9D9D9"/><circle cx="172.586" cy="311.367" r="3" fill="#D9D9D9"/><circle cx="146.586" cy="311.367" r="3" fill="#D9D9D9"/><circle cx="120.586" cy="311.367" r="3" fill="#D9D9D9"/><circle cx="94.586" cy="311.367" r="3" fill="#D9D9D9"/><circle cx="68.586" cy="311.367" r="3" fill="#D9D9D9"/><circle cx="42.586" cy="311.367" r="3" fill="#D9D9D9"/><circle cx="328.586" cy="336.867" r="3" fill="#D9D9D9"/><circle cx="302.586" cy="336.867" r="3" fill="#D9D9D9"/><circle cx="276.586" cy="336.867" r="3" fill="#D9D9D9"/><circle cx="250.586" cy="336.867" r="3" fill="#D9D9D9"/><circle cx="224.586" cy="336.867" r="3" fill="#D9D9D9"/><circle cx="198.586" cy="336.867" r="3" fill="#D9D9D9"/><circle cx="172.586" cy="336.867" r="3" fill="#D9D9D9"/><circle cx="146.586" cy="336.867" r="3" fill="#D9D9D9"/><circle cx="120.586" cy="336.867" r="3" fill="#D9D9D9"/><circle cx="94.586" cy="336.867" r="3" fill="#D9D9D9"/><circle cx="68.586" cy="336.867" r="3" fill="#D9D9D9"/><circle cx="42.586" cy="336.867" r="3" fill="#D9D9D9"/><circle cx="328.586" cy="362.367" r="3" fill="#D9D9D9"/><circle cx="302.586" cy="362.367" r="3" fill="#D9D9D9"/><circle cx="276.586" cy="362.367" r="3" fill="#D9D9D9"/><circle cx="250.586" cy="362.367" r="3" fill="#D9D9D9"/><circle cx="224.586" cy="362.367" r="3" fill="#D9D9D9"/><circle cx="198.586" cy="362.367" r="3" fill="#D9D9D9"/><circle cx="172.586" cy="362.367" r="3" fill="#D9D9D9"/><circle cx="146.586" cy="362.367" r="3" fill="#D9D9D9"/><circle cx="120.586" cy="362.367" r="3" fill="#D9D9D9"/><circle cx="94.586" cy="362.367" r="3" fill="#D9D9D9"/><circle cx="68.586" cy="362.367" r="3" fill="#D9D9D9"/><circle cx="42.586" cy="362.367" r="3" fill="#D9D9D9"/><circle cx="328.586" cy="387.867" r="3" fill="#D9D9D9"/><circle cx="302.586" cy="387.867" r="3" fill="#D9D9D9"/><circle cx="276.586" cy="387.867" r="3" fill="#D9D9D9"/><circle cx="250.586" cy="387.867" r="3" fill="#D9D9D9"/><circle cx="224.586" cy="387.867" r="3" fill="#D9D9D9"/><circle cx="198.586" cy="387.867" r="3" fill="#D9D9D9"/><circle cx="172.586" cy="387.867" r="3" fill="#D9D9D9"/><circle cx="146.586" cy="387.867" r="3" fill="#D9D9D9"/><circle cx="120.586" cy="387.867" r="3" fill="#D9D9D9"/><circle cx="94.586" cy="387.867" r="3" fill="#D9D9D9"/><circle cx="68.586" cy="387.867" r="3" fill="#D9D9D9"/><circle cx="42.586" cy="387.867" r="3" fill="#D9D9D9"/><circle cx="328.586" cy="413.367" r="3" fill="#D9D9D9"/><circle cx="302.586" cy="413.367" r="3" fill="#D9D9D9"/><circle cx="276.586" cy="413.367" r="3" fill="#D9D9D9"/><circle cx="250.586" cy="413.367" r="3" fill="#D9D9D9"/><circle cx="224.586" cy="413.367" r="3" fill="#D9D9D9"/><circle cx="198.586" cy="413.367" r="3" fill="#D9D9D9"/><circle cx="172.586" cy="413.367" r="3" fill="#D9D9D9"/><circle cx="146.586" cy="413.367" r="3" fill="#D9D9D9"/><circle cx="120.586" cy="413.367" r="3" fill="#D9D9D9"/><circle cx="94.586" cy="413.367" r="3" fill="#D9D9D9"/><circle cx="68.586" cy="413.367" r="3" fill="#D9D9D9"/><circle cx="42.586" cy="413.367" r="3" fill="#D9D9D9"/><circle cx="328.586" cy="438.867" r="3" fill="#D9D9D9"/><circle cx="302.586" cy="438.867" r="3" fill="#D9D9D9"/><circle cx="276.586" cy="438.867" r="3" fill="#D9D9D9"/><circle cx="250.586" cy="438.867" r="3" fill="#D9D9D9"/><circle cx="224.586" cy="438.867" r="3" fill="#D9D9D9"/><circle cx="198.586" cy="438.867" r="3" fill="#D9D9D9"/><circle cx="172.586" cy="438.867" r="3" fill="#D9D9D9"/><circle cx="146.586" cy="438.867" r="3" fill="#D9D9D9"/><circle cx="120.586" cy="438.867" r="3" fill="#D9D9D9"/><circle cx="94.586" cy="438.867" r="3" fill="#D9D9D9"/><circle cx="68.586" cy="438.867" r="3" fill="#D9D9D9"/><circle cx="42.586" cy="438.867" r="3" fill="#D9D9D9"/><circle cx="328.586" cy="464.367" r="3" fill="#D9D9D9"/><circle cx="302.586" cy="464.367" r="3" fill="#D9D9D9"/><circle cx="276.586" cy="464.367" r="3" fill="#D9D9D9"/><circle cx="250.586" cy="464.367" r="3" fill="#D9D9D9"/><circle cx="224.586" cy="464.367" r="3" fill="#D9D9D9"/><circle cx="198.586" cy="464.367" r="3" fill="#D9D9D9"/><circle cx="172.586" cy="464.367" r="3" fill="#D9D9D9"/><circle cx="146.586" cy="464.367" r="3" fill="#D9D9D9"/><circle cx="120.586" cy="464.367" r="3" fill="#D9D9D9"/><circle cx="94.586" cy="464.367" r="3" fill="#D9D9D9"/><circle cx="68.586" cy="464.367" r="3" fill="#D9D9D9"/><circle cx="42.586" cy="464.367" r="3" fill="#D9D9D9"/><circle cx="328.586" cy="489.867" r="3" fill="#D9D9D9"/><circle cx="302.586" cy="489.867" r="3" fill="#D9D9D9"/><circle cx="276.586" cy="489.867" r="3" fill="#D9D9D9"/><circle cx="250.586" cy="489.867" r="3" fill="#D9D9D9"/><circle cx="224.586" cy="489.867" r="3" fill="#D9D9D9"/><circle cx="198.586" cy="489.867" r="3" fill="#D9D9D9"/><circle cx="172.586" cy="489.867" r="3" fill="#D9D9D9"/><circle cx="146.586" cy="489.867" r="3" fill="#D9D9D9"/><circle cx="120.586" cy="489.867" r="3" fill="#D9D9D9"/><circle cx="94.586" cy="489.867" r="3" fill="#D9D9D9"/><circle cx="68.586" cy="489.867" r="3" fill="#D9D9D9"/><circle cx="42.586" cy="489.867" r="3" fill="#D9D9D9"/><circle cx="328.586" cy="515.367" r="3" fill="#D9D9D9"/><circle cx="302.586" cy="515.367" r="3" fill="#D9D9D9"/><circle cx="276.586" cy="515.367" r="3" fill="#D9D9D9"/><circle cx="250.586" cy="515.367" r="3" fill="#D9D9D9"/><circle cx="224.586" cy="515.367" r="3" fill="#D9D9D9"/><circle cx="198.586" cy="515.367" r="3" fill="#D9D9D9"/><circle cx="172.586" cy="515.367" r="3" fill="#D9D9D9"/><circle cx="146.586" cy="515.367" r="3" fill="#D9D9D9"/><circle cx="120.586" cy="515.367" r="3" fill="#D9D9D9"/><circle cx="94.586" cy="515.367" r="3" fill="#D9D9D9"/><circle cx="68.586" cy="515.367" r="3" fill="#D9D9D9"/><circle cx="42.586" cy="515.367" r="3" fill="#D9D9D9"/><circle cx="328.586" cy="540.867" r="3" fill="#D9D9D9"/><circle cx="302.586" cy="540.867" r="3" fill="#D9D9D9"/><circle cx="276.586" cy="540.867" r="3" fill="#D9D9D9"/><circle cx="250.586" cy="540.867" r="3" fill="#D9D9D9"/><circle cx="224.586" cy="540.867" r="3" fill="#D9D9D9"/><circle cx="198.586" cy="540.867" r="3" fill="#D9D9D9"/><circle cx="172.586" cy="540.867" r="3" fill="#D9D9D9"/><circle cx="146.586" cy="540.867" r="3" fill="#D9D9D9"/><circle cx="120.586" cy="540.867" r="3" fill="#D9D9D9"/><circle cx="94.586" cy="540.867" r="3" fill="#D9D9D9"/><circle cx="68.586" cy="540.867" r="3" fill="#D9D9D9"/><circle cx="42.586" cy="540.867" r="3" fill="#D9D9D9"/><circle cx="328.586" cy="566.367" r="3" fill="#D9D9D9"/><circle cx="302.586" cy="566.367" r="3" fill="#D9D9D9"/><circle cx="276.586" cy="566.367" r="3" fill="#D9D9D9"/><circle cx="250.586" cy="566.367" r="3" fill="#D9D9D9"/><circle cx="224.586" cy="566.367" r="3" fill="#D9D9D9"/><circle cx="198.586" cy="566.367" r="3" fill="#D9D9D9"/><circle cx="172.586" cy="566.367" r="3" fill="#D9D9D9"/><circle cx="146.586" cy="566.367" r="3" fill="#D9D9D9"/><circle cx="120.586" cy="566.367" r="3" fill="#D9D9D9"/><circle cx="94.586" cy="566.367" r="3" fill="#D9D9D9"/><circle cx="68.586" cy="566.367" r="3" fill="#D9D9D9"/><circle cx="42.586" cy="566.367" r="3" fill="#D9D9D9"/><circle cx="328.586" cy="591.867" r="3" fill="#D9D9D9"/><circle cx="302.586" cy="591.867" r="3" fill="#D9D9D9"/><circle cx="276.586" cy="591.867" r="3" fill="#D9D9D9"/><circle cx="250.586" cy="591.867" r="3" fill="#D9D9D9"/><circle cx="224.586" cy="591.867" r="3" fill="#D9D9D9"/><circle cx="198.586" cy="591.867" r="3" fill="#D9D9D9"/><circle cx="172.586" cy="591.867" r="3" fill="#D9D9D9"/><circle cx="146.586" cy="591.867" r="3" fill="#D9D9D9"/><circle cx="120.586" cy="591.867" r="3" fill="#D9D9D9"/><circle cx="94.586" cy="591.867" r="3" fill="#D9D9D9"/><circle cx="68.586" cy="591.867" r="3" fill="#D9D9D9"/><circle cx="42.586" cy="591.867" r="3" fill="#D9D9D9"/><circle cx="328.586" cy="617.367" r="3" fill="#D9D9D9"/><circle cx="302.586" cy="617.367" r="3" fill="#D9D9D9"/><circle cx="276.586" cy="617.367" r="3" fill="#D9D9D9"/><circle cx="250.586" cy="617.367" r="3" fill="#D9D9D9"/><circle cx="224.586" cy="617.367" r="3" fill="#D9D9D9"/><circle cx="198.586" cy="617.367" r="3" fill="#D9D9D9"/><circle cx="172.586" cy="617.367" r="3" fill="#D9D9D9"/><circle cx="146.586" cy="617.367" r="3" fill="#D9D9D9"/><circle cx="120.586" cy="617.367" r="3" fill="#D9D9D9"/><circle cx="94.586" cy="617.367" r="3" fill="#D9D9D9"/><circle cx="68.586" cy="617.367" r="3" fill="#D9D9D9"/><circle cx="42.586" cy="617.367" r="3" fill="#D9D9D9"/><circle cx="328.586" cy="642.867" r="3" fill="#D9D9D9"/><circle cx="302.586" cy="642.867" r="3" fill="#D9D9D9"/><circle cx="276.586" cy="642.867" r="3" fill="#D9D9D9"/><circle cx="250.586" cy="642.867" r="3" fill="#D9D9D9"/><circle cx="224.586" cy="642.867" r="3" fill="#D9D9D9"/><circle cx="198.586" cy="642.867" r="3" fill="#D9D9D9"/><circle cx="172.586" cy="642.867" r="3" fill="#D9D9D9"/><circle cx="146.586" cy="642.867" r="3" fill="#D9D9D9"/><circle cx="120.586" cy="642.867" r="3" fill="#D9D9D9"/><circle cx="94.586" cy="642.867" r="3" fill="#D9D9D9"/><circle cx="68.586" cy="642.867" r="3" fill="#D9D9D9"/><circle cx="42.586" cy="642.867" r="3" fill="#D9D9D9"/><circle cx="328.586" cy="668.367" r="3" fill="#D9D9D9"/><circle cx="302.586" cy="668.367" r="3" fill="#D9D9D9"/><circle cx="276.586" cy="668.367" r="3" fill="#D9D9D9"/><circle cx="250.586" cy="668.367" r="3" fill="#D9D9D9"/><circle cx="224.586" cy="668.367" r="3" fill="#D9D9D9"/><circle cx="198.586" cy="668.367" r="3" fill="#D9D9D9"/><circle cx="172.586" cy="668.367" r="3" fill="#D9D9D9"/><circle cx="146.586" cy="668.367" r="3" fill="#D9D9D9"/><circle cx="120.586" cy="668.367" r="3" fill="#D9D9D9"/><circle cx="94.586" cy="668.367" r="3" fill="#D9D9D9"/><circle cx="68.586" cy="668.367" r="3" fill="#D9D9D9"/><circle cx="42.586" cy="668.367" r="3" fill="#D9D9D9"/><circle cx="458.586" cy="132.867" r="3" fill="#D9D9D9"/><circle cx="432.586" cy="132.867" r="3" fill="#D9D9D9"/><circle cx="406.586" cy="132.867" r="3" fill="#D9D9D9"/><circle cx="380.586" cy="132.867" r="3" fill="#D9D9D9"/><circle cx="354.586" cy="132.867" r="3" fill="#D9D9D9"/><circle cx="458.586" cy="158.367" r="3" fill="#D9D9D9"/><circle cx="432.586" cy="158.367" r="3" fill="#D9D9D9"/><circle cx="406.586" cy="158.367" r="3" fill="#D9D9D9"/><circle cx="380.586" cy="158.367" r="3" fill="#D9D9D9"/><circle cx="354.586" cy="158.367" r="3" fill="#D9D9D9"/><circle cx="458.586" cy="183.867" r="3" fill="#D9D9D9"/><circle cx="432.586" cy="183.867" r="3" fill="#D9D9D9"/><circle cx="406.586" cy="183.867" r="3" fill="#D9D9D9"/><circle cx="380.586" cy="183.867" r="3" fill="#D9D9D9"/><circle cx="354.586" cy="183.867" r="3" fill="#D9D9D9"/><circle cx="458.586" cy="209.367" r="3" fill="#D9D9D9"/><circle cx="432.586" cy="209.367" r="3" fill="#D9D9D9"/><circle cx="406.586" cy="209.367" r="3" fill="#D9D9D9"/><circle cx="380.586" cy="209.367" r="3" fill="#D9D9D9"/><circle cx="354.586" cy="209.367" r="3" fill="#D9D9D9"/><circle cx="458.586" cy="234.867" r="3" fill="#D9D9D9"/><circle cx="432.586" cy="234.867" r="3" fill="#D9D9D9"/><circle cx="406.586" cy="234.867" r="3" fill="#D9D9D9"/><circle cx="380.586" cy="234.867" r="3" fill="#D9D9D9"/><circle cx="354.586" cy="234.867" r="3" fill="#D9D9D9"/><circle cx="458.586" cy="260.367" r="3" fill="#D9D9D9"/><circle cx="432.586" cy="260.367" r="3" fill="#D9D9D9"/><circle cx="406.586" cy="260.367" r="3" fill="#D9D9D9"/><circle cx="380.586" cy="260.367" r="3" fill="#D9D9D9"/><circle cx="354.586" cy="260.367" r="3" fill="#D9D9D9"/><circle cx="458.586" cy="285.867" r="3" fill="#D9D9D9"/><circle cx="432.586" cy="285.867" r="3" fill="#D9D9D9"/><circle cx="406.586" cy="285.867" r="3" fill="#D9D9D9"/><circle cx="380.586" cy="285.867" r="3" fill="#D9D9D9"/><circle cx="354.586" cy="285.867" r="3" fill="#D9D9D9"/><circle cx="458.586" cy="311.367" r="3" fill="#D9D9D9"/><circle cx="432.586" cy="311.367" r="3" fill="#D9D9D9"/><circle cx="406.586" cy="311.367" r="3" fill="#D9D9D9"/><circle cx="380.586" cy="311.367" r="3" fill="#D9D9D9"/><circle cx="354.586" cy="311.367" r="3" fill="#D9D9D9"/><circle cx="458.586" cy="336.867" r="3" fill="#D9D9D9"/><circle cx="432.586" cy="336.867" r="3" fill="#D9D9D9"/><circle cx="406.586" cy="336.867" r="3" fill="#D9D9D9"/><circle cx="380.586" cy="336.867" r="3" fill="#D9D9D9"/><circle cx="354.586" cy="336.867" r="3" fill="#D9D9D9"/><circle cx="458.586" cy="362.367" r="3" fill="#D9D9D9"/><circle cx="432.586" cy="362.367" r="3" fill="#D9D9D9"/><circle cx="406.586" cy="362.367" r="3" fill="#D9D9D9"/><circle cx="380.586" cy="362.367" r="3" fill="#D9D9D9"/><circle cx="354.586" cy="362.367" r="3" fill="#D9D9D9"/><circle cx="458.586" cy="387.867" r="3" fill="#D9D9D9"/><circle cx="432.586" cy="387.867" r="3" fill="#D9D9D9"/><circle cx="406.586" cy="387.867" r="3" fill="#D9D9D9"/><circle cx="380.586" cy="387.867" r="3" fill="#D9D9D9"/><circle cx="354.586" cy="387.867" r="3" fill="#D9D9D9"/><circle cx="458.586" cy="413.367" r="3" fill="#D9D9D9"/><circle cx="432.586" cy="413.367" r="3" fill="#D9D9D9"/><circle cx="406.586" cy="413.367" r="3" fill="#D9D9D9"/><circle cx="380.586" cy="413.367" r="3" fill="#D9D9D9"/><circle cx="354.586" cy="413.367" r="3" fill="#D9D9D9"/><circle cx="458.586" cy="438.867" r="3" fill="#D9D9D9"/><circle cx="432.586" cy="438.867" r="3" fill="#D9D9D9"/><circle cx="406.586" cy="438.867" r="3" fill="#D9D9D9"/><circle cx="380.586" cy="438.867" r="3" fill="#D9D9D9"/><circle cx="354.586" cy="438.867" r="3" fill="#D9D9D9"/><circle cx="458.586" cy="464.367" r="3" fill="#D9D9D9"/><circle cx="432.586" cy="464.367" r="3" fill="#D9D9D9"/><circle cx="406.586" cy="464.367" r="3" fill="#D9D9D9"/><circle cx="380.586" cy="464.367" r="3" fill="#D9D9D9"/><circle cx="354.586" cy="464.367" r="3" fill="#D9D9D9"/><circle cx="458.586" cy="489.867" r="3" fill="#D9D9D9"/><circle cx="432.586" cy="489.867" r="3" fill="#D9D9D9"/><circle cx="406.586" cy="489.867" r="3" fill="#D9D9D9"/><circle cx="380.586" cy="489.867" r="3" fill="#D9D9D9"/><circle cx="354.586" cy="489.867" r="3" fill="#D9D9D9"/><circle cx="458.586" cy="515.367" r="3" fill="#D9D9D9"/><circle cx="432.586" cy="515.367" r="3" fill="#D9D9D9"/><circle cx="406.586" cy="515.367" r="3" fill="#D9D9D9"/><circle cx="380.586" cy="515.367" r="3" fill="#D9D9D9"/><circle cx="354.586" cy="515.367" r="3" fill="#D9D9D9"/><circle cx="458.586" cy="540.867" r="3" fill="#D9D9D9"/><circle cx="432.586" cy="540.867" r="3" fill="#D9D9D9"/><circle cx="406.586" cy="540.867" r="3" fill="#D9D9D9"/><circle cx="380.586" cy="540.867" r="3" fill="#D9D9D9"/><circle cx="354.586" cy="540.867" r="3" fill="#D9D9D9"/><circle cx="458.586" cy="566.367" r="3" fill="#D9D9D9"/><circle cx="432.586" cy="566.367" r="3" fill="#D9D9D9"/><circle cx="406.586" cy="566.367" r="3" fill="#D9D9D9"/><circle cx="380.586" cy="566.367" r="3" fill="#D9D9D9"/><circle cx="354.586" cy="566.367" r="3" fill="#D9D9D9"/><circle cx="458.586" cy="591.867" r="3" fill="#D9D9D9"/><circle cx="432.586" cy="591.867" r="3" fill="#D9D9D9"/><circle cx="406.586" cy="591.867" r="3" fill="#D9D9D9"/><circle cx="380.586" cy="591.867" r="3" fill="#D9D9D9"/><circle cx="354.586" cy="591.867" r="3" fill="#D9D9D9"/><circle cx="458.586" cy="617.367" r="3" fill="#D9D9D9"/><circle cx="432.586" cy="617.367" r="3" fill="#D9D9D9"/><circle cx="406.586" cy="617.367" r="3" fill="#D9D9D9"/><circle cx="380.586" cy="617.367" r="3" fill="#D9D9D9"/><circle cx="354.586" cy="617.367" r="3" fill="#D9D9D9"/><circle cx="458.586" cy="642.867" r="3" fill="#D9D9D9"/><circle cx="432.586" cy="642.867" r="3" fill="#D9D9D9"/><circle cx="406.586" cy="642.867" r="3" fill="#D9D9D9"/><circle cx="380.586" cy="642.867" r="3" fill="#D9D9D9"/><circle cx="354.586" cy="642.867" r="3" fill="#D9D9D9"/><circle cx="458.586" cy="668.367" r="3" fill="#D9D9D9"/><circle cx="432.586" cy="668.367" r="3" fill="#D9D9D9"/><circle cx="406.586" cy="668.367" r="3" fill="#D9D9D9"/><circle cx="380.586" cy="668.367" r="3" fill="#D9D9D9"/><circle cx="354.586" cy="668.367" r="3" fill="#D9D9D9"/></svg>