<svg xmlns="http://www.w3.org/2000/svg" xmlns:xlink="http://www.w3.org/1999/xlink" fill="none" viewBox="0 0 420 420">
  <defs>
    <path id="reuse-0" fill="#fff" d="M0 0h420v420H0z"/>
  </defs>
  <g clip-path="url(#a)">
    <use xlink:href="#reuse-0"/>
    <path fill="#3B44AC" d="M420 0H0v420h420V0Z"/>
    <path fill="#fff" d="M209.76 59.576c40.113 0 77.826 15.62 106.194 43.988 28.369 28.368 43.988 66.081 43.988 106.194s-15.619 77.826-43.988 106.195c-28.368 28.368-66.081 43.987-106.194 43.987s-77.826-15.619-106.194-43.987c-28.37-28.369-43.988-66.082-43.988-106.195s15.619-77.826 43.988-106.194c28.368-28.369 66.081-43.988 106.194-43.988Zm0-13.058c-90.16 0-163.24 73.094-163.24 163.254s73.08 163.24 163.24 163.24c90.16 0 163.24-73.094 163.24-163.254s-73.08-163.24-163.24-163.24Z"/>
    <path fill="#fff" d="M242.218 285.426c18.059 0 39.134-11.088 39.134-42.325V140.58h-13.058v102.521c0 26.411-18.233 29.253-26.076 29.253-17.818 0-26.117-10.537-26.117-33.181v-62.69c0-24.601-16.476-42.446-39.174-42.446-21.598 0-39.174 17.576-39.174 39.175V278.87h13.058V173.212c0-14.399 11.717-26.117 26.116-26.117 15.378 0 26.116 12.08 26.116 29.388v62.69c0 40.247 24.548 46.253 39.175 46.253Z"/>
    <path fill="#fff" d="M176.739 166.709a6.528 6.528 0 0 1 6.529 6.529v73.013c0 36.306 30.501 58.775 58.775 58.775v13.058c-34.549 0-71.833-27.457-71.833-71.833v-73.013a6.529 6.529 0 0 1 6.529-6.529ZM248.559 172.863l.013 73.013a6.529 6.529 0 1 1-13.058 0v-72.638c0-40.488-30.46-58.775-58.775-58.775v-13.058c35.595.014 71.619 24.548 71.82 71.458Z"/>
  </g>
  <defs>
    <clipPath id="a">
      <use xlink:href="#reuse-0"/>
    </clipPath>
  </defs>
</svg>